<svg width="24" height="24" viewBox="0 0 24 24" fill="none" xmlns="http://www.w3.org/2000/svg">
<path fill-rule="evenodd" clip-rule="evenodd" d="M11.8273 0C12.1976 0 12.7611 0.0214425 13.0884 0.0482456C13.4104 0.0804093 13.9417 0.155458 14.269 0.214425C14.591 0.278752 15.133 0.412768 15.4657 0.509259C15.793 0.61111 16.276 0.77729 16.5336 0.884502C16.7965 0.991714 17.1722 1.16325 17.3815 1.27047C17.5854 1.37232 17.9718 1.58674 18.2401 1.75292C18.503 1.91374 18.9538 2.21394 19.2328 2.42836C19.5119 2.63742 20.0056 3.06091 20.3276 3.37183C20.6442 3.68274 21.0842 4.14912 21.2989 4.41715C21.5135 4.67982 21.8516 5.14083 22.0448 5.43567C22.2433 5.7305 22.5599 6.28264 22.7478 6.66861C22.9356 7.04921 23.1717 7.596 23.279 7.87475C23.381 8.1535 23.5259 8.62523 23.6064 8.92007C23.6815 9.2149 23.7942 9.7456 23.8532 10.0994C23.9069 10.4532 23.9713 11.1072 23.9928 11.5468C24.0089 12.0346 23.9981 12.6457 23.9606 13.1014C23.923 13.5141 23.8479 14.1145 23.7888 14.4415C23.7298 14.7631 23.6117 15.2938 23.5259 15.6208C23.44 15.9425 23.2844 16.4625 23.1771 16.7734C23.0697 17.0843 22.8068 17.7008 22.5921 18.1403C22.3721 18.5799 22.0555 19.1588 21.8784 19.4269C21.7013 19.6896 21.3686 20.1345 21.1325 20.4132C20.9018 20.692 20.5047 21.0994 20.2524 21.3192C20.0002 21.539 19.6031 21.8445 19.367 22C19.1309 22.1608 18.7338 22.3806 18.4816 22.4985C18.2293 22.6111 17.8698 22.7612 17.6766 22.8202C17.4834 22.8845 17.1453 22.9756 16.9253 23.0239C16.7053 23.0667 16.1848 23.1203 15.7716 23.1364C15.192 23.1579 14.9237 23.1472 14.6017 23.0775C14.3763 23.0292 14.0383 22.9327 13.8558 22.8577C13.668 22.7826 13.3997 22.6433 13.2494 22.5468C13.1045 22.4556 12.8362 22.2466 12.6645 22.0804C12.4928 21.9196 12.2298 21.6033 12.0849 21.3835C11.94 21.1637 11.7468 20.7885 11.6556 20.5526C11.5698 20.3167 11.4463 19.9415 11.3927 19.7217C11.3336 19.5019 11.2478 19.0088 11.1029 17.9366L10.7541 17.8669C10.5609 17.8241 10.2228 17.7329 10.0028 17.6525C9.78278 17.5775 9.48226 17.4488 9.33201 17.3791C9.18712 17.3041 8.85977 17.1057 8.60755 16.9449C8.35534 16.7787 7.9636 16.4517 7.73821 16.2266C7.50746 15.9961 7.20158 15.6316 7.05669 15.4171C6.91717 15.2081 6.71325 14.8596 6.61129 14.6559C6.50933 14.4469 6.35907 14.0877 6.28394 13.8518C6.20882 13.616 6.11222 13.2675 6.07466 13.0745C6.021 12.8119 6.0049 11.9595 6.0049 9.63303C6.0049 6.56676 6.0049 6.53995 6.11759 6.38986C6.18198 6.30945 6.30004 6.19151 6.37517 6.13255C6.5147 6.0307 6.60592 6.02533 8.12459 6.02533C9.64325 6.02533 9.73448 6.0307 9.874 6.13255C9.94913 6.19151 10.0672 6.30945 10.1316 6.38986C10.2174 6.50779 10.2443 6.62036 10.2443 6.85623C10.2443 7.08674 10.2174 7.21003 10.137 7.31724C10.0779 7.39229 9.95986 7.51023 9.87937 7.57455C9.73985 7.6764 9.65398 7.68713 7.69528 7.71393V10.0458C7.69528 11.8577 7.71138 12.4634 7.77041 12.769C7.81334 12.9781 7.8992 13.2997 7.9636 13.4766C8.02263 13.6535 8.15142 13.9322 8.24265 14.0931C8.33387 14.2539 8.52169 14.5326 8.66658 14.7095C8.81147 14.8864 9.03149 15.1169 9.15492 15.2242C9.28371 15.3314 9.53056 15.5136 9.70765 15.6262C9.88474 15.7441 10.1852 15.8996 10.3784 15.98C10.5716 16.0551 10.9419 16.1623 11.2102 16.2105C11.559 16.2802 11.8381 16.2963 12.203 16.2748C12.482 16.2588 12.8469 16.2105 13.0079 16.1623C13.1689 16.1194 13.4372 16.0336 13.5982 15.9746C13.7592 15.9157 14.0812 15.7441 14.3119 15.594C14.5373 15.4493 14.8593 15.192 15.0203 15.0312C15.1813 14.8704 15.4389 14.5487 15.5838 14.3236C15.734 14.0931 15.9057 13.7714 15.9648 13.6106C16.0238 13.4498 16.115 13.1818 16.1633 13.0209C16.2384 12.769 16.2545 12.3455 16.2814 7.71393L15.2671 7.70321C14.3441 7.68713 14.2368 7.6764 14.1027 7.57991C14.0275 7.52095 13.9095 7.40301 13.8451 7.3226C13.7592 7.20467 13.7324 7.0921 13.7324 6.85623C13.7324 6.62036 13.7592 6.50779 13.8451 6.38986C13.9095 6.30945 14.0275 6.19151 14.1027 6.13255C14.2422 6.0307 14.3334 6.02533 15.8521 6.02533C17.3707 6.02533 17.462 6.0307 17.6015 6.13255C17.6766 6.19151 17.7947 6.30945 17.8591 6.38986C17.9718 6.53995 17.9718 6.58284 17.9879 9.41861C17.9986 11.3431 17.9825 12.4474 17.9449 12.7529C17.9074 13.0049 17.8215 13.4123 17.7517 13.6642C17.6766 13.9162 17.521 14.3236 17.4029 14.5755C17.2795 14.8275 17.0595 15.2134 16.9092 15.4332C16.7536 15.653 16.4585 16.0014 16.2545 16.2105C16.0453 16.4196 15.6964 16.7198 15.4764 16.8752C15.2564 17.0307 14.8915 17.2505 14.6715 17.363C14.4515 17.4703 14.1134 17.615 13.9202 17.6793C13.727 17.7383 13.4158 17.8241 12.8738 17.9366L12.8791 18.3601C12.8845 18.6121 12.9328 18.9551 13.0026 19.1964C13.0616 19.4269 13.1957 19.7753 13.2977 19.9737C13.3997 20.1774 13.5875 20.4829 13.7163 20.6598C13.888 20.8957 14.0383 21.0243 14.2744 21.153C14.4461 21.2441 14.7359 21.3621 14.913 21.4103C15.1598 21.4854 15.3584 21.4961 15.7716 21.4746C16.0667 21.4586 16.4907 21.3996 16.7107 21.3406C16.9307 21.2817 17.2688 21.1744 17.462 21.094C17.6551 21.019 17.9932 20.8474 18.2132 20.7134C18.4333 20.5794 18.7874 20.3167 19.0021 20.1345C19.2167 19.9522 19.5387 19.6306 19.7158 19.4269C19.8983 19.2178 20.2149 18.7997 20.4188 18.4888C20.6281 18.1779 20.9125 17.6847 21.052 17.3898C21.1969 17.095 21.4062 16.6126 21.5135 16.3177C21.6262 16.0229 21.7926 15.4654 21.8892 15.0848C21.9858 14.6988 22.1092 14.1199 22.1575 13.7982C22.2058 13.4712 22.2594 12.844 22.2755 12.4045C22.2916 11.9274 22.2809 11.3591 22.2433 11.0107C22.2058 10.6837 22.1306 10.1798 22.0716 9.88498C22.0072 9.59015 21.8784 9.09697 21.7765 8.78605C21.6745 8.47514 21.4438 7.92299 21.2667 7.55311C21.0896 7.18323 20.8052 6.67933 20.6442 6.42738C20.4778 6.17543 20.2363 5.82699 20.0968 5.65009C19.9627 5.47319 19.6675 5.13547 19.4475 4.90497C19.2275 4.6691 18.8411 4.30994 18.5889 4.10087C18.3367 3.89181 17.9127 3.57553 17.6498 3.40399C17.3815 3.22709 16.8878 2.94834 16.5497 2.7768C16.2116 2.60526 15.6428 2.36939 15.2886 2.25146C14.9344 2.13353 14.4032 1.98879 14.108 1.92982C13.8129 1.87086 13.3675 1.79581 13.1153 1.76364C12.863 1.73684 12.3532 1.71004 11.9722 1.71004C11.5966 1.71004 11.017 1.74756 10.6843 1.79045C10.357 1.83333 9.80424 1.94054 9.46616 2.02631C9.12809 2.11208 8.65585 2.25682 8.41973 2.34259C8.18362 2.43372 7.78651 2.59454 7.53429 2.70175C7.15329 2.86793 7.04059 2.89473 6.84741 2.86793C6.68642 2.84649 6.56299 2.7768 6.41274 2.63206C6.26785 2.49269 6.19272 2.36939 6.16589 2.2193C6.14442 2.10136 6.14442 1.92446 6.16052 1.82797C6.17662 1.73684 6.25711 1.58138 6.33761 1.49025C6.42347 1.39376 6.59519 1.26511 6.72935 1.20078C6.86351 1.13109 7.21768 0.980993 7.51819 0.857699C7.82407 0.734405 8.30704 0.568226 8.59146 0.482456C8.88124 0.396686 9.32127 0.289473 9.57349 0.235867C9.82571 0.182261 10.2818 0.112573 10.5931 0.0750487C10.9043 0.0375243 11.4571 0.00536062 11.8273 0ZM3.9657 3.37719C4.05156 3.37719 4.22328 3.41471 4.34134 3.46832C4.46477 3.52729 4.60429 3.64522 4.66869 3.75243C4.73308 3.85428 4.80284 4.00438 4.82431 4.09551C4.84577 4.18664 4.82968 4.34746 4.79211 4.47076C4.75455 4.59405 4.58283 4.83528 4.40574 5.03362C4.22865 5.2266 3.9818 5.51608 3.85837 5.67689C3.73495 5.83771 3.49883 6.17543 3.33248 6.42738C3.17149 6.67933 2.89244 7.18323 2.70998 7.55311C2.5329 7.92299 2.30751 8.47514 2.20555 8.78605C2.10359 9.09697 1.96943 9.60087 1.90504 9.91178C1.84601 10.2227 1.77088 10.6891 1.73868 10.9571C1.71185 11.2198 1.68502 11.6701 1.68502 11.9488C1.68502 12.2276 1.71185 12.71 1.73868 13.0209C1.77088 13.3319 1.85674 13.8626 1.93187 14.2003C2.01236 14.538 2.14116 15.0312 2.23238 15.2992C2.31824 15.5619 2.55973 16.1247 2.76365 16.5482C2.96757 16.9664 3.15002 17.3094 3.17149 17.3094C3.19832 17.3094 3.38077 17.2719 3.59006 17.229C3.79398 17.1861 4.11059 17.1486 4.28768 17.1486C4.46477 17.1486 4.77601 17.1861 4.9853 17.229C5.18922 17.2719 5.56486 17.4059 5.81708 17.5292C6.17662 17.7061 6.36444 17.8455 6.70252 18.1886C7.01913 18.5049 7.18548 18.73 7.33037 19.0248C7.44307 19.2446 7.56649 19.5823 7.60942 19.7753C7.65772 19.9683 7.69528 20.3275 7.69528 20.5794C7.69528 20.8314 7.65772 21.1905 7.60942 21.3835C7.56649 21.5765 7.44307 21.9142 7.33037 22.134C7.18548 22.4288 7.01913 22.654 6.70252 22.9702C6.36444 23.3133 6.17662 23.4527 5.81708 23.6296C5.56486 23.7529 5.17849 23.8869 4.95847 23.9352C4.68479 23.9941 4.4111 24.0102 4.09986 23.9941C3.83691 23.978 3.46127 23.9084 3.21442 23.8279C2.9783 23.7529 2.62949 23.5921 2.4363 23.4688C2.24312 23.3455 1.94797 23.0989 1.77625 22.9166C1.60453 22.7344 1.37377 22.4074 1.25572 22.1876C1.14302 21.9678 1.00887 21.6301 0.955202 21.4371C0.901539 21.228 0.863975 20.885 0.863975 20.5794C0.863975 20.2524 0.896173 19.9415 0.955202 19.7217C1.00887 19.5287 1.12692 19.2285 1.21279 19.0516C1.30401 18.8747 1.45964 18.6281 1.73868 18.2743L1.57233 17.9902C1.4811 17.8401 1.32011 17.5399 1.21279 17.3362C1.11083 17.1272 0.917638 16.6822 0.788847 16.3445C0.654689 16.0068 0.477601 15.46 0.39174 15.1384C0.305879 14.8114 0.182454 14.2485 0.118059 13.8786C0.0214652 13.3211 0 13.0049 0 12.0024C0 10.9732 0.0160989 10.6944 0.123425 10.0994C0.193187 9.71344 0.327345 9.11305 0.423938 8.75925C0.520532 8.40545 0.713719 7.83722 0.853243 7.4995C0.9874 7.16179 1.21279 6.67933 1.34694 6.42738C1.4811 6.17543 1.74942 5.7305 1.93724 5.43567C2.13042 5.14083 2.42557 4.72807 2.58656 4.52436C2.75291 4.3153 3.02123 4.00974 3.18759 3.83284C3.34858 3.6613 3.55249 3.4844 3.64372 3.44688C3.72958 3.40935 3.87447 3.37719 3.9657 3.37719ZM3.25198 19.191C3.12856 19.2768 2.95683 19.4483 2.87097 19.5716C2.78511 19.7003 2.67242 19.9361 2.62412 20.097C2.55436 20.3007 2.5329 20.4883 2.55436 20.7134C2.57046 20.9386 2.63486 21.1369 2.76365 21.3781C2.86561 21.5658 3.01586 21.7802 3.10709 21.8552C3.19295 21.9249 3.38614 22.0482 3.5364 22.1233C3.76178 22.2412 3.87447 22.2626 4.26085 22.2626C4.64722 22.2626 4.75991 22.2412 4.9853 22.1233C5.13019 22.0482 5.32338 21.9249 5.4146 21.8552C5.50046 21.7802 5.66145 21.5658 5.76341 21.3781C5.93513 21.0619 5.94587 20.9975 5.95123 20.5794C5.95123 20.1881 5.92977 20.0862 5.81171 19.8557C5.73122 19.7056 5.60779 19.5126 5.53803 19.4269C5.4629 19.3358 5.24825 19.1857 5.06043 19.0838C4.78138 18.9337 4.64722 18.8962 4.34134 18.8801C4.08913 18.8694 3.88521 18.8908 3.72422 18.9498C3.59006 18.998 3.38077 19.1052 3.25198 19.191Z" fill="#6C757D"/>
</svg>
