<svg width="14" height="14" viewBox="0 0 14 14" fill="none" xmlns="http://www.w3.org/2000/svg">
<g clip-path="url(#clip0_5600_3878)">
<path fill-rule="evenodd" clip-rule="evenodd" d="M9.13569 9.13688C9.21696 9.05552 9.31346 8.99098 9.41968 8.94695C9.52591 8.90291 9.63977 8.88025 9.75476 8.88025C9.86975 8.88025 9.98361 8.90291 10.0898 8.94695C10.1961 8.99098 10.2926 9.05552 10.3738 9.13688L13.7426 12.5056C13.9068 12.6697 13.999 12.8923 13.9991 13.1244C13.9992 13.3565 13.9071 13.5791 13.743 13.7433C13.5789 13.9075 13.3564 13.9998 13.1243 13.9999C12.8921 13.9999 12.6695 13.9078 12.5053 13.7437L9.13657 10.375C9.05522 10.2937 8.99068 10.1972 8.94664 10.091C8.90261 9.98479 8.87994 9.87093 8.87994 9.75594C8.87994 9.64095 8.90261 9.52709 8.94664 9.42086C8.99068 9.31464 9.05522 9.21814 9.13657 9.13688H9.13569Z" fill="#6C757D"/>
<path fill-rule="evenodd" clip-rule="evenodd" d="M5.6875 10.5C6.31949 10.5 6.94528 10.3755 7.52916 10.1337C8.11304 9.89182 8.64357 9.53733 9.09045 9.09045C9.53733 8.64357 9.89182 8.11304 10.1337 7.52916C10.3755 6.94528 10.5 6.31949 10.5 5.6875C10.5 5.05551 10.3755 4.42972 10.1337 3.84584C9.89182 3.26196 9.53733 2.73143 9.09045 2.28455C8.64357 1.83767 8.11304 1.48318 7.52916 1.24133C6.94528 0.999479 6.31949 0.875 5.6875 0.875C4.41115 0.875 3.18707 1.38203 2.28455 2.28455C1.38203 3.18707 0.875 4.41115 0.875 5.6875C0.875 6.96385 1.38203 8.18793 2.28455 9.09045C3.18707 9.99297 4.41115 10.5 5.6875 10.5ZM11.375 5.6875C11.375 7.19592 10.7758 8.64256 9.70917 9.70917C8.64256 10.7758 7.19592 11.375 5.6875 11.375C4.17908 11.375 2.73244 10.7758 1.66583 9.70917C0.599217 8.64256 0 7.19592 0 5.6875C0 4.17908 0.599217 2.73244 1.66583 1.66583C2.73244 0.599217 4.17908 0 5.6875 0C7.19592 0 8.64256 0.599217 9.70917 1.66583C10.7758 2.73244 11.375 4.17908 11.375 5.6875Z" fill="#6C757D"/>
</g>
<defs>
<clipPath id="clip0_5600_3878">
<rect width="14" height="14" fill="white"/>
</clipPath>
</defs>
</svg>
